<svg width="253" height="253" viewBox="0 0 253 253" fill="none" xmlns="http://www.w3.org/2000/svg">
<rect width="250" height="250" rx="125" fill="#9563F9"/>
<path d="M75.8675 184.793L65 176.268L65 73.7323L75.8675 65.2078L75.8675 184.793Z" fill="white"/>
<path d="M126.54 185L101.204 176.437L101.204 73.5629L126.54 65L126.54 185Z" fill="white"/>
<path d="M185 185L137.413 176.811L137.413 73.5629L185 65L185 185Z" fill="white"/>
<mask id="mask0_1484_2" style="mask-type:luminance" maskUnits="userSpaceOnUse" x="182" y="182" width="69" height="68">
<path d="M238.35 190.545L218.623 182.47C217.083 181.844 215.36 181.844 213.821 182.47L194.078 190.545C192.528 191.191 191.295 192.424 190.648 193.975L182.49 213.36C182.167 214.136 182 214.969 182 215.81C182 216.651 182.167 217.483 182.49 218.26L190.624 237.654C191.27 239.205 192.503 240.438 194.054 241.084L213.796 249.159C215.335 249.785 217.059 249.785 218.598 249.159L238.35 241.079C239.901 240.433 241.134 239.2 241.78 237.649L249.914 218.255C250.237 217.478 250.404 216.646 250.404 215.805C250.404 214.964 250.237 214.131 249.914 213.355L241.78 193.96C241.131 192.415 239.898 191.188 238.35 190.545Z" fill="white"/>
</mask>
<g mask="url(#mask0_1484_2)">
<path d="M178.346 231.117L184.03 190.658L221.907 175.355L254.1 200.507L248.416 240.966L210.534 256.269L178.346 231.117Z" fill="#53405F" fill-opacity="0.2" stroke="url(#paint0_radial_1484_2)" stroke-width="0.49" stroke-miterlimit="10"/>
<path d="M205.894 221.773V209.851L216.223 203.888L226.552 209.851V221.773L216.223 227.736L205.894 221.773Z" stroke="#CCCCCC" stroke-width="0.49" stroke-miterlimit="10"/>
<path opacity="0.76" d="M204.281 220.636L206.075 207.881L218.016 203.06L228.164 210.988L226.37 223.743L214.429 228.564L204.281 220.636Z" stroke="#CCCCCC" stroke-width="0.49" stroke-miterlimit="10"/>
<path opacity="0.76" d="M202.729 219.176L206.56 205.809L220.055 202.443L229.718 212.448L225.886 225.816L212.391 229.182L202.729 219.176Z" stroke="#B3B3B3" stroke-width="0.49" stroke-miterlimit="10"/>
<path opacity="0.76" d="M201.283 217.382L207.394 203.658L222.334 202.09L231.163 214.242L225.053 227.967L210.113 229.535L201.283 217.382Z" stroke="#B3B3B3" stroke-width="0.49" stroke-miterlimit="10"/>
<path opacity="0.76" d="M200.009 215.246L208.608 201.487L224.817 202.055L232.437 216.378L223.837 230.137L207.623 229.569L200.009 215.246Z" stroke="#B3B3B3" stroke-width="0.49" stroke-miterlimit="10"/>
<path opacity="0.76" d="M198.964 212.772L210.229 199.346L227.482 202.388L233.475 218.852L222.214 232.278L204.957 229.236L198.964 212.772Z" stroke="#B3B3B3" stroke-width="0.49" stroke-miterlimit="10"/>
<path opacity="0.76" d="M198.225 209.964L212.288 197.302L230.285 203.148L234.22 221.66L220.157 234.322L202.159 228.476L198.225 209.964Z" stroke="#B3B3B3" stroke-width="0.49" stroke-miterlimit="10"/>
<path opacity="0.76" d="M197.853 206.852L214.797 195.426L233.167 204.383L234.593 224.772L217.649 236.198L199.278 227.241L197.853 206.852Z" stroke="#999999" stroke-width="0.49" stroke-miterlimit="10"/>
<path opacity="0.76" d="M197.921 203.471L217.762 193.794L236.063 206.137L234.52 228.153L214.684 237.83L196.383 225.487L197.921 203.471Z" stroke="#999999" stroke-width="0.49" stroke-miterlimit="10"/>
<path opacity="0.76" d="M198.509 199.86L221.176 192.495L238.894 208.445L233.936 231.764L211.263 239.129L193.55 223.179L198.509 199.86Z" stroke="#999999" stroke-width="0.49" stroke-miterlimit="10"/>
<path opacity="0.76" d="M199.675 196.092L225.028 191.618L241.575 211.341L232.77 235.532L207.417 240.006L190.87 220.283L199.675 196.092Z" stroke="#999999" stroke-width="0.49" stroke-miterlimit="10"/>
<path opacity="0.76" d="M201.488 192.231L229.276 191.26L244.01 214.844L230.957 239.393L203.169 240.363L188.435 216.78L201.488 192.231Z" stroke="#808080" stroke-width="0.49" stroke-miterlimit="10"/>
<path opacity="0.76" d="M204.006 188.379L233.872 191.52L246.087 218.95L228.438 243.245L198.572 240.104L186.356 212.674L204.006 188.379Z" stroke="#808080" stroke-width="0.49" stroke-miterlimit="10"/>
<path opacity="0.76" d="M207.285 184.636L238.748 192.481L247.69 223.659L225.16 246.988L193.692 239.143L184.755 207.965L207.285 184.636Z" stroke="#808080" stroke-width="0.49" stroke-miterlimit="10"/>
<path opacity="0.76" d="M211.347 181.127L243.824 194.25L248.695 228.932L221.098 250.497L188.621 237.375L183.745 202.692L211.347 181.127Z" stroke="#666666" stroke-width="0.49" stroke-miterlimit="10"/>
<path opacity="0.76" d="M216.223 177.986L248.98 196.9V234.723L216.223 253.637L183.462 234.723V196.9L216.223 177.986Z" stroke="#666666" stroke-width="0.49" stroke-miterlimit="10"/>
</g>
<path d="M238.351 190.545L218.624 182.47C217.084 181.843 215.361 181.843 213.822 182.47L194.079 190.545C192.529 191.191 191.296 192.424 190.649 193.975L182.491 213.359C182.168 214.136 182.001 214.968 182.001 215.809C182.001 216.65 182.168 217.483 182.491 218.259L190.625 237.654C191.271 239.205 192.504 240.437 194.055 241.084L213.797 249.159C215.336 249.785 217.06 249.785 218.599 249.159L238.351 241.079C239.902 240.432 241.135 239.2 241.781 237.649L249.915 218.255C250.238 217.478 250.405 216.646 250.405 215.805C250.405 214.964 250.238 214.131 249.915 213.355L241.781 193.96C241.132 192.415 239.899 191.188 238.351 190.545Z" stroke="url(#paint1_linear_1484_2)" stroke-width="4.9"/>
<path d="M232.084 208.748L227.272 203.721H200.356L212.244 215.971L200.356 227.903H207.138L219.609 215.956L212.259 208.748H232.084Z" fill="url(#paint2_linear_1484_2)"/>
<path d="M223.611 210.949H216.692L222.028 215.971L209.479 227.903H216.692L229.04 215.971L223.611 210.949Z" fill="url(#paint3_linear_1484_2)"/>
<defs>
<radialGradient id="paint0_radial_1484_2" cx="0" cy="0" r="1" gradientUnits="userSpaceOnUse" gradientTransform="translate(216.223 215.81) scale(39.4597 39.4597)">
<stop stop-color="white"/>
<stop offset="1"/>
</radialGradient>
<linearGradient id="paint1_linear_1484_2" x1="216.223" y1="179.442" x2="216.223" y2="252.192" gradientUnits="userSpaceOnUse">
<stop stop-color="#8F314F"/>
<stop offset="1" stop-color="#DD704F"/>
</linearGradient>
<linearGradient id="paint2_linear_1484_2" x1="216.223" y1="228.005" x2="216.223" y2="203.623" gradientUnits="userSpaceOnUse">
<stop stop-color="#8F314F"/>
<stop offset="1" stop-color="#DD704F"/>
</linearGradient>
<linearGradient id="paint3_linear_1484_2" x1="219.26" y1="230.652" x2="219.26" y2="202.932" gradientUnits="userSpaceOnUse">
<stop stop-color="#8F314F"/>
<stop offset="1" stop-color="#DD704F"/>
</linearGradient>
</defs>
</svg>
